# Blender v2.79 (sub 0) OBJ File: ''
# www.blender.org
mtllib Cone.mtl
o Circle
v 0.000000 0.000000 -0.330926
v -0.286590 0.000000 -0.165463
v -0.286590 0.000000 0.165463
v 0.000000 0.000000 0.330926
v 0.286590 0.000000 0.165463
v 0.286590 0.000000 -0.165463
v 0.000000 0.114574 -0.330926
v -0.286590 0.114574 -0.165463
v -0.286590 0.114574 0.165463
v 0.000000 0.114574 0.330926
v 0.286590 0.114574 0.165463
v 0.286590 0.114574 -0.165463
v 0.000000 0.114574 -0.253253
v -0.219323 0.114574 -0.126626
v -0.219323 0.114574 0.126626
v 0.000000 0.114574 0.253253
v 0.219323 0.114574 0.126626
v 0.219323 0.114574 -0.126626
v 0.000000 0.946585 -0.055464
v -0.048033 0.946585 -0.027732
v -0.048033 0.946585 0.027732
v 0.000000 0.946585 0.055464
v 0.048033 0.946585 0.027732
v 0.048033 0.946585 -0.027732
v 0.000000 0.780183 -0.095021
v 0.000000 0.613780 -0.134579
v 0.000000 0.447378 -0.174137
v 0.000000 0.280976 -0.213695
v 0.185065 0.280976 -0.106847
v 0.150807 0.447378 -0.087069
v 0.116549 0.613780 -0.067290
v 0.082291 0.780183 -0.047511
v 0.185065 0.280976 0.106847
v 0.150807 0.447378 0.087069
v 0.116549 0.613780 0.067290
v 0.082291 0.780183 0.047511
v 0.000000 0.280976 0.213695
v 0.000000 0.447378 0.174137
v 0.000000 0.613780 0.134579
v 0.000000 0.780183 0.095021
v -0.185065 0.280976 0.106848
v -0.150807 0.447378 0.087069
v -0.116549 0.613780 0.067290
v -0.082291 0.780183 0.047511
v -0.185065 0.280976 -0.106847
v -0.150807 0.447378 -0.087069
v -0.116549 0.613780 -0.067290
v -0.082291 0.780183 -0.047511
vn 0.5000 0.0000 -0.8660
vn 1.0000 0.0000 0.0000
vn 0.5000 0.0000 0.8660
vn -0.5000 0.0000 0.8660
vn -1.0000 0.0000 0.0000
vn -0.5000 0.0000 -0.8660
vn 0.0000 1.0000 -0.0000
vn 0.4897 0.2016 -0.8482
vn 0.9795 0.2016 0.0000
vn 0.4897 0.2016 0.8482
vn -0.4897 0.2016 0.8482
vn -0.9795 0.2016 0.0000
vn -0.4897 0.2016 -0.8482
vn 0.0000 -1.0000 0.0000
usemtl Orange
s off
f 7//1 12//1 6//1
f 12//2 11//2 5//2
f 11//3 10//3 4//3
f 10//4 9//4 3//4
f 9//5 8//5 2//5
f 8//6 7//6 1//6
f 13//7 18//7 12//7
f 18//7 17//7 11//7
f 17//7 16//7 10//7
f 10//7 16//7 15//7
f 15//7 14//7 8//7
f 14//7 13//7 7//7
f 19//8 24//8 32//8
f 24//9 23//9 36//9
f 23//10 22//10 40//10
f 40//11 22//11 21//11
f 21//12 20//12 48//12
f 48//13 20//13 19//13
f 20//7 21//7 24//7
f 2//14 1//14 4//14
f 14//13 45//13 28//13
f 46//13 47//13 26//13
f 41//12 45//12 14//12
f 43//12 47//12 46//12
f 16//11 37//11 41//11
f 38//11 39//11 43//11
f 17//10 33//10 37//10
f 35//10 39//10 38//10
f 29//9 33//9 17//9
f 31//9 35//9 34//9
f 28//8 29//8 18//8
f 26//8 31//8 30//8
f 1//1 7//1 6//1
f 6//2 12//2 5//2
f 5//3 11//3 4//3
f 4//4 10//4 3//4
f 3//5 9//5 2//5
f 2//6 8//6 1//6
f 7//7 13//7 12//7
f 12//7 18//7 11//7
f 11//7 17//7 10//7
f 9//7 10//7 15//7
f 9//7 15//7 8//7
f 8//7 14//7 7//7
f 25//8 19//8 32//8
f 32//9 24//9 36//9
f 36//10 23//10 40//10
f 44//11 40//11 21//11
f 44//12 21//12 48//12
f 25//13 48//13 19//13
f 24//7 19//7 20//7
f 22//7 23//7 24//7
f 24//7 21//7 22//7
f 4//14 3//14 2//14
f 6//14 5//14 4//14
f 4//14 1//14 6//14
f 13//13 14//13 28//13
f 27//13 46//13 26//13
f 15//12 41//12 14//12
f 42//12 43//12 46//12
f 15//11 16//11 41//11
f 42//11 38//11 43//11
f 16//10 17//10 37//10
f 34//10 35//10 38//10
f 18//9 29//9 17//9
f 30//9 31//9 34//9
f 13//8 28//8 18//8
f 27//8 26//8 30//8
usemtl White
f 45//13 46//13 27//13
f 47//13 48//13 25//13
f 41//12 42//12 46//12
f 44//12 48//12 47//12
f 37//11 38//11 42//11
f 39//11 40//11 44//11
f 34//10 38//10 37//10
f 35//10 36//10 40//10
f 30//9 34//9 33//9
f 31//9 32//9 36//9
f 27//8 30//8 29//8
f 25//8 32//8 31//8
f 28//13 45//13 27//13
f 26//13 47//13 25//13
f 45//12 41//12 46//12
f 43//12 44//12 47//12
f 41//11 37//11 42//11
f 43//11 39//11 44//11
f 33//10 34//10 37//10
f 39//10 35//10 40//10
f 29//9 30//9 33//9
f 35//9 31//9 36//9
f 28//8 27//8 29//8
f 26//8 25//8 31//8
